<svg width="250" height="250" viewBox="0 0 250 250" fill="none" xmlns="http://www.w3.org/2000/svg">
<path d="M218.75 176.344V104.167C218.75 64.8855 218.75 45.2396 206.541 33.0417C194.333 20.8438 174.698 20.8334 135.416 20.8334H125C85.7186 20.8334 66.0728 20.8334 53.8748 33.0417C41.6769 45.25 41.6665 64.8855 41.6665 104.167V203.125" stroke="#BD4141" stroke-width="10" stroke-linecap="round" stroke-linejoin="round"/>
<path d="M218.75 177.083H67.7082C60.8015 177.083 54.1777 179.827 49.2939 184.711C44.4102 189.595 41.6665 196.218 41.6665 203.125C41.6665 210.032 44.4102 216.656 49.2939 221.539C54.1777 226.423 60.8015 229.167 67.7082 229.167H218.75" stroke="#BD4141" stroke-width="10" stroke-linecap="round" stroke-linejoin="round"/>
<path d="M218.75 229.167C211.843 229.167 205.22 226.423 200.336 221.539C195.452 216.656 192.708 210.032 192.708 203.125C192.708 196.218 195.452 189.595 200.336 184.711C205.22 179.827 211.843 177.083 218.75 177.083M149.875 71.3542C153.291 69.0314 157.328 67.7934 161.458 67.8022C172.969 67.8022 182.292 77.2084 182.292 88.8126C182.292 100.24 172.875 109.792 161.458 109.792V119.792C161.458 129.615 161.458 134.521 158.406 137.573C155.354 140.625 150.448 140.625 140.625 140.625H119.792C109.969 140.625 105.063 140.625 102.01 137.573C98.9583 134.521 98.9583 129.615 98.9583 119.792V111.094C86.7917 111.094 78.125 102.031 78.125 88.8126C78.125 77.2084 87.4479 67.8022 98.9583 67.8022C103.25 67.8022 107.229 69.1042 110.542 71.3438C111.952 67.2475 114.604 63.6927 118.129 61.1741C121.654 58.6555 125.876 57.2984 130.208 57.2917C139.292 57.2917 147.021 63.1563 149.875 71.3542ZM149.875 71.3542C150.639 73.5348 151.028 75.8542 151.042 78.3126" stroke="#BD4141" stroke-width="10" stroke-linecap="round" stroke-linejoin="round"/>
</svg>
